<?xml version="1.0" standalone="no"?><!DOCTYPE svg PUBLIC "-//W3C//DTD SVG 1.1//EN" "http://www.w3.org/Graphics/SVG/1.1/DTD/svg11.dtd"><svg t="1608206121669" class="icon" viewBox="0 0 1024 1024" version="1.1" xmlns="http://www.w3.org/2000/svg" p-id="1890" xmlns:xlink="http://www.w3.org/1999/xlink" width="200" height="200"><defs><style type="text/css"></style></defs><path d="M992 1024c-9.6 0-16-3.2-22.4-9.6l-352-352c-12.8-12.8-12.8-32 0-44.8s32-12.8 44.8 0l352 352c12.8 12.8 12.8 32 0 44.8-6.4 6.4-12.8 9.6-22.4 9.6z" p-id="1891" fill="#2c2c2c"></path><path d="M384 768C172.8 768 0 595.2 0 384S172.8 0 384 0s384 172.8 384 384-172.8 384-384 384z m0-704C208 64 64 208 64 384s144 320 320 320 320-144 320-320S560 64 384 64z" p-id="1892" fill="#2c2c2c"></path></svg>